<svg xmlns='http://www.w3.org/2000/svg' class="pikchr" viewBox="0 0 422.381 34.56">
<circle cx="5" cy="17" r="3.6"  style="fill:none;stroke-width:2.16;stroke:rgb(0,0,0);" />
<polygon points="32,17 20,21 20,12" style="fill:rgb(0,0,0)"/>
<path d="M9,17L26,17"  style="fill:none;stroke-width:2.16;stroke:rgb(0,0,0);" />
<path d="M47,32L93,32A15 15 0 0 0 108 17A15 15 0 0 0 93 2L47,2A15 15 0 0 0 32 17A15 15 0 0 0 47 32Z"  style="fill:none;stroke-width:2.16;stroke:rgb(0,0,0);" />
<text x="70" y="17" text-anchor="middle" fill="rgb(0,0,0)" dominant-baseline="central">FILTER</text>
<polygon points="131,17 119,21 119,12" style="fill:rgb(0,0,0)"/>
<path d="M108,17L125,17"  style="fill:none;stroke-width:2.16;stroke:rgb(0,0,0);" />
<path d="M146,32L146,32A15 15 0 0 0 161 17A15 15 0 0 0 146 2L146,2A15 15 0 0 0 131 17A15 15 0 0 0 146 32Z"  style="fill:none;stroke-width:2.16;stroke:rgb(0,0,0);" />
<text x="146" y="17" text-anchor="middle" font-weight="bold" fill="rgb(0,0,0)" dominant-baseline="central">(</text>
<polygon points="184,17 173,21 173,12" style="fill:rgb(0,0,0)"/>
<path d="M161,17L178,17"  style="fill:none;stroke-width:2.16;stroke:rgb(0,0,0);" />
<path d="M199,32L249,32A15 15 0 0 0 264 17A15 15 0 0 0 249 2L199,2A15 15 0 0 0 184 17A15 15 0 0 0 199 32Z"  style="fill:none;stroke-width:2.16;stroke:rgb(0,0,0);" />
<text x="224" y="17" text-anchor="middle" fill="rgb(0,0,0)" dominant-baseline="central">WHERE</text>
<polygon points="287,17 275,21 275,12" style="fill:rgb(0,0,0)"/>
<path d="M264,17L281,17"  style="fill:none;stroke-width:2.16;stroke:rgb(0,0,0);" />
<path d="M287,32L336,32L336,2L287,2Z"  style="fill:none;stroke-width:2.16;stroke:rgb(0,0,0);" />
<text x="312" y="17" text-anchor="middle" fill="rgb(0,0,0)" dominant-baseline="central">expr</text>
<polygon points="359,17 348,21 348,12" style="fill:rgb(0,0,0)"/>
<path d="M336,17L353,17"  style="fill:none;stroke-width:2.16;stroke:rgb(0,0,0);" />
<path d="M374,32A15 15 0 0 0 389 17A15 15 0 0 0 374 2A15 15 0 0 0 359 17A15 15 0 0 0 374 32Z"  style="fill:none;stroke-width:2.16;stroke:rgb(0,0,0);" />
<text x="374" y="17" text-anchor="middle" font-weight="bold" fill="rgb(0,0,0)" dominant-baseline="central">)</text>
<polygon points="413,17 401,21 401,12" style="fill:rgb(0,0,0)"/>
<path d="M389,17L407,17"  style="fill:none;stroke-width:2.16;stroke:rgb(0,0,0);" />
<circle cx="416" cy="17" r="3.6"  style="fill:none;stroke-width:2.16;stroke:rgb(0,0,0);" />
</svg>