<svg xmlns='http://www.w3.org/2000/svg' class="pikchr" viewBox="0 0 353.621 72.36">
<circle cx="5" cy="17" r="3.6"  style="fill:none;stroke-width:2.16;stroke:rgb(0,0,0);" />
<polygon points="32,17 20,21 20,12" style="fill:rgb(0,0,0)"/>
<path d="M9,17L26,17"  style="fill:none;stroke-width:2.16;stroke:rgb(0,0,0);" />
<path d="M47,32A15 15 0 0 0 62 17A15 15 0 0 0 47 2A15 15 0 0 0 32 17A15 15 0 0 0 47 32Z"  style="fill:none;stroke-width:2.16;stroke:rgb(0,0,0);" />
<text x="47" y="17" text-anchor="middle" font-weight="bold" fill="rgb(0,0,0)" dominant-baseline="central">(</text>
<polygon points="85,17 74,21 74,12" style="fill:rgb(0,0,0)"/>
<path d="M62,17L79,17"  style="fill:none;stroke-width:2.16;stroke:rgb(0,0,0);" />
<polygon points="121,17 110,21 110,12" style="fill:rgb(0,0,0)"/>
<path d="M85,17L115,17"  style="fill:none;stroke-width:2.16;stroke:rgb(0,0,0);" />
<path d="M136,32L230,32A15 15 0 0 0 245 17A15 15 0 0 0 230 2L136,2A15 15 0 0 0 121 17A15 15 0 0 0 136 32Z"  style="fill:none;stroke-width:2.16;stroke:rgb(0,0,0);" />
<text x="183" y="17" text-anchor="middle" fill="rgb(0,0,0)" dominant-baseline="central">column-name</text>
<polygon points="290,17 279,21 279,12" style="fill:rgb(0,0,0)"/>
<path d="M245,17L285,17"  style="fill:none;stroke-width:2.16;stroke:rgb(0,0,0);" />
<path d="M306,32A15 15 0 0 0 321 17A15 15 0 0 0 306 2A15 15 0 0 0 290 17A15 15 0 0 0 306 32Z"  style="fill:none;stroke-width:2.16;stroke:rgb(0,0,0);" />
<text x="306" y="17" text-anchor="middle" font-weight="bold" fill="rgb(0,0,0)" dominant-baseline="central">)</text>
<polygon points="344,17 332,21 332,12" style="fill:rgb(0,0,0)"/>
<path d="M321,17L338,17"  style="fill:none;stroke-width:2.16;stroke:rgb(0,0,0);" />
<circle cx="347" cy="17" r="3.6"  style="fill:none;stroke-width:2.16;stroke:rgb(0,0,0);" />
<path d="M183,70A15 15 0 0 0 198 55L198,55A15 15 0 0 0 183 39A15 15 0 0 0 168 55L168,55A15 15 0 0 0 183 70Z"  style="fill:none;stroke-width:2.16;stroke:rgb(0,0,0);" />
<text x="183" y="55" text-anchor="middle" font-weight="bold" fill="rgb(0,0,0)" dominant-baseline="central">,</text>
<polygon points="198,55 210,50 210,59" style="fill:rgb(0,0,0)"/>
<path d="M245,17 L 257,17 Q 269,17 269,32 L 269,40 Q 269,55 254,55 L 219,55 L 204,55"  style="fill:none;stroke-width:2.16;stroke:rgb(0,0,0);" />
<polygon points="121,17 110,21 110,12" style="fill:rgb(0,0,0)"/>
<path d="M168,55 L 102,55 Q 87,55 87,40 L 87,32 Q 87,17 101,17 L 115,17"  style="fill:none;stroke-width:2.16;stroke:rgb(0,0,0);" />
</svg>